# xmcd CD database file
# Copyright (C) 1993-1998 Ti Kan
# 
# Track frame offsets:
#     150
#     10455
#     29185
#     46355
#     61968
#     74140
#     90028
#     101618
#     111698
#     124260
# 
# Disc length: 1829 seconds
# 
# Revision: 1
# Processed by: cddbd v1.4b41PL1 Copyright (c) Steve Scherf et al.
# Submitted via: DiscPlay 4.0.4
# 
DISCID=9307230a
DTITLE=Ike and Tina Turner - Keep On Pushing
DYEAR=1900
DGENRE=
TTITLE0=Honey Child I'm Over You
TTITLE1=Something
TTITLE2=Stormy Weather
TTITLE3=Why I Sing the Blues
TTITLE4=There's Nothing I Wouldn't Do
TTITLE5=I Can't Stop Loving You
TTITLE6=Ain't That A Shame
TTITLE7=Keep On Pushing
TTITLE8=Remember Baby
TTITLE9=Ain't Got Nobody
EXTD=
EXTT0=
EXTT1=
EXTT2=
EXTT3=
EXTT4=
EXTT5=
EXTT6=
EXTT7=
EXTT8=
EXTT9=
PLAYORDER=
